<?xml version="1.0" encoding="utf-8"?>
<!-- Generator: Adobe Illustrator 17.1.0, SVG Export Plug-In . SVG Version: 6.00 Build 0)  -->
<!DOCTYPE svg PUBLIC "-//W3C//DTD SVG 1.1//EN" "http://www.w3.org/Graphics/SVG/1.1/DTD/svg11.dtd">
<svg version="1.1" id="Layer_1" xmlns="http://www.w3.org/2000/svg" xmlns:xlink="http://www.w3.org/1999/xlink" x="0px" y="0px"
	 viewBox="0 0 105.3 104.5" enable-background="new 0 0 105.3 104.5" xml:space="preserve">
<g>
	<path d="M62.4,86.5c-2.9,0.7-5.8,1.1-8.7,1.2c-12.6,0.3-27.1-4.5-30.1-19c-0.1-0.5-0.4-1-0.7-1.3c-0.1-0.2-0.2-0.5-0.4-0.7
		c-0.9-1-2.5-1.1-3.5-0.1c-4.6,4.3-8.8,5.5-10.8,4.8c-0.5-0.2-1.2-0.6-1.4-1.9c-0.5-2.8,5.5-5.1,8.4-5.7c1.3-0.3,2.2-1.5,1.9-2.8
		c-0.2-1.3-1.4-2.2-2.7-2.1c-3.9,0.4-7.6-2.3-8.9-5.2C5,52.4,4.6,51,5.8,50c2.4-2.1,8.7,1.8,11.2,4c1,0.9,2.6,0.8,3.5-0.3
		c0.3-0.4,0.5-0.8,0.6-1.3c0.2-0.4,0.4-1,0.3-1.5c-1.8-14.2,1.4-27.5,8.8-35.8c5.6-6.3,13.2-9.5,22.7-9.4c3.3,0,6.6,0.7,9.7,2.1
		c1.3,0.5,2.7,0,3.3-1.3c0.5-1.3,0-2.7-1.3-3.3c-3.8-1.6-7.7-2.4-11.7-2.5C42,0.5,32.8,4.4,26.3,11.7C18.8,20.2,15.1,33.2,16,47.1
		c-3.9-2.3-9.5-4.5-13.5-0.9c-2.6,2.3-3.2,5.8-1.6,9.3c1,2.3,3.1,4.6,5.6,6.2c-3.1,1.9-5.4,4.8-4.7,8.5c0.5,2.9,2.2,4.9,4.8,5.8
		c0.8,0.3,1.7,0.4,2.7,0.4c3.1,0,6.7-1.4,10.2-4c2.5,7.9,7.9,13.2,14.5,16.3l-7.7,5.7c-2.1-1.6-4.5-2.3-4.9-2.4
		c-1.3-0.4-2.7,0.4-3.1,1.8s0.4,2.7,1.8,3.1c1.1,0.3,3.6,1.3,4.3,2.8c0.2,0.3,0.3,0.8,0.1,1.6c-0.4,1.3,0.3,2.7,1.6,3.2
		c0.3,0.1,0.5,0.1,0.8,0.1c1.1,0,2-0.7,2.4-1.7c0.5-1.5,0.5-3,0-4.4l10.2-7.5c0,0,0,0,0,0c4.2,1.2,8.7,1.8,12.9,1.8
		c0.5,0,0.9,0,1.4,0c3.3-0.1,6.6-0.5,9.8-1.4c1.3-0.3,2.2-1.7,1.8-3S63.8,86.1,62.4,86.5z"/>
	<path d="M29.3,22.8c-6,6.6-3,25.6,6.4,16.1c0,0,3.2-2.5,3.2-9.8C38.9,21.9,33,18.6,29.3,22.8z M34.4,32.9c0,2.1-1.1,3.8-2.4,3.8
		c-1.3,0-2.5-1.7-2.5-3.8c0-2.1,1.1-3.8,2.5-3.8C33.3,29.1,34.4,30.8,34.4,32.9z"/>
	<path d="M45.6,19.7c-7.3,9.1-3.7,35.2,7.9,22.2c0,0,3.9-3.5,3.9-13.5S50.2,13.9,45.6,19.7z M48.4,37.5c-1.7,0-3.1-2.3-3.1-5.1
		c0-2.8,1.4-5.1,3.1-5.1s3.1,2.3,3.1,5.1C51.5,35.2,50.1,37.5,48.4,37.5z"/>
	<path d="M66.4,68.1c-1.7,1.1-7.5,4-10.8,3c-0.9-0.3-1.5-0.8-2-1.7c-0.4-0.7-0.4-1.5-0.1-2.3c1.3-3.5,7.9-7.5,11.7-9.2
		c1.3-0.6,1.8-2,1.3-3.3c-0.6-1.3-2-1.8-3.3-1.3c-1.2,0.5-11.9,5.4-14.4,12c-0.8,2.1-0.7,4.3,0.3,6.2c1.1,2.2,2.8,3.7,5.1,4.3
		c0.9,0.3,1.9,0.4,2.8,0.4c5.4,0,11.2-3.5,11.9-4c1.2-0.7,1.5-2.3,0.8-3.4C69.1,67.7,67.5,67.3,66.4,68.1z"/>
	<path d="M102.8,0H73.6c-1.4,0-2.5,1.1-2.5,2.5v99.3c0,1.4,1.1,2.5,2.5,2.5h29.3c1.4,0,2.5-1.1,2.5-2.5V2.5
		C105.3,1.1,104.2,0,102.8,0z M76.1,99.3V5h24.3v11.6h-9.8c-1.4,0-2.5,1.1-2.5,2.5s1.1,2.5,2.5,2.5h9.8v11.6H85
		c-1.4,0-2.5,1.1-2.5,2.5s1.1,2.5,2.5,2.5h15.3v11.6h-9.8c-1.4,0-2.5,1.1-2.5,2.5s1.1,2.5,2.5,2.5h9.8v11.6H85
		c-1.4,0-2.5,1.1-2.5,2.5s1.1,2.5,2.5,2.5h15.3v11.6h-9.8c-1.4,0-2.5,1.1-2.5,2.5s1.1,2.5,2.5,2.5h9.8v11.6H76.1z"/>
</g>
</svg>
