<?xml version="1.0" encoding="utf-8"?>
<!-- Generator: Adobe Illustrator 17.1.0, SVG Export Plug-In . SVG Version: 6.00 Build 0)  -->
<!DOCTYPE svg PUBLIC "-//W3C//DTD SVG 1.1//EN" "http://www.w3.org/Graphics/SVG/1.1/DTD/svg11.dtd">
<svg version="1.1" id="Layer_1" xmlns="http://www.w3.org/2000/svg" xmlns:xlink="http://www.w3.org/1999/xlink" x="0px" y="0px"
	 viewBox="0 0 95.3 103.9" enable-background="new 0 0 95.3 103.9" xml:space="preserve">
<g>
	<path d="M29.2,22.2c-6,6.6-3,25.6,6.4,16.1c0,0,3.2-2.5,3.2-9.8C38.9,21.2,33,18,29.2,22.2z M31.9,36.1c-1.3,0-2.4-1.7-2.4-3.8
		c0-2.1,1.1-3.8,2.4-3.8c1.4,0,2.5,1.7,2.5,3.8C34.4,34.4,33.3,36.1,31.9,36.1z"/>
	<path d="M45.6,19c-7.3,9.1-3.7,35.2,7.9,22.2c0,0,3.9-3.5,3.9-13.5S50.2,13.3,45.6,19z M48.4,36.9c-1.7,0-3.1-2.3-3.1-5.1
		c0-2.8,1.4-5.1,3.1-5.1c1.7,0,3.1,2.3,3.1,5.1C51.5,34.6,50.1,36.9,48.4,36.9z"/>
	<path d="M78.6,54.2c-0.5-1.3-1.9-2-3.2-1.5c-1.3,0.5-2,1.9-1.5,3.2c0.7,1.9,2.3,8.1,0.6,11.2c-0.5,0.8-1.1,1.3-2.1,1.6
		c-0.8,0.2-1.5,0.1-2.3-0.4c-3.2-2-5.6-9.3-6.4-13.4c-0.3-1.4-1.6-2.2-2.9-2c-1.4,0.3-2.2,1.6-2,2.9c0.3,1.3,2.7,12.8,8.7,16.6
		c1.3,0.9,2.8,1.3,4.3,1.3c0.6,0,1.2-0.1,1.9-0.2c2.4-0.6,4.2-2,5.3-4.1C81.9,63.9,79,55.2,78.6,54.2z"/>
	<path d="M89.3,94.5c-1.1,0-1.9-0.1-2.1-0.5c-0.5-0.7-0.1-2.5,0.3-3.5c0.5-1.3,0-2.7-1.3-3.3c-1.3-0.6-2.7,0-3.3,1.3
		c-0.1,0.3-0.8,2-0.9,4c-4.4,0.3-7.8-2.9-9.5-5.1C79.8,83.9,86,78.5,90,71.8c5.2-8.6,9.2-23.2-1.1-43.8C85.7,21.5,73.4,0.2,52.8,0
		C42-0.1,32.8,3.7,26.3,11.1C18.8,19.5,15.1,32.5,16,46.5c-3.9-2.3-9.5-4.5-13.5-0.9c-2.6,2.3-3.2,5.8-1.6,9.3
		c1,2.3,3.1,4.6,5.6,6.2c-3.1,1.9-5.4,4.8-4.7,8.5c0.5,2.9,2.2,4.9,4.8,5.8c0.8,0.3,1.7,0.4,2.7,0.4c3.1,0,6.7-1.4,10.2-4
		c2.5,7.9,7.9,13.2,14.5,16.3l-7.7,5.7c-2.1-1.6-4.5-2.3-4.9-2.4c-1.3-0.4-2.7,0.4-3.1,1.8c-0.4,1.3,0.4,2.7,1.8,3.1
		c1.1,0.3,3.6,1.3,4.3,2.8c0.2,0.3,0.3,0.8,0.1,1.6c-0.4,1.3,0.3,2.7,1.6,3.2c0.3,0.1,0.5,0.1,0.8,0.1c1.1,0,2-0.7,2.4-1.7
		c0.5-1.5,0.5-3,0-4.4l10.2-7.5c0,0,0,0,0,0c4.2,1.2,8.7,1.8,12.9,1.8c0.5,0,0.9,0,1.4,0c4.8-0.1,9.5-1,13.9-2.6
		c1.9,2.6,6.6,8.1,13.6,8.1c0.7,0,1.4-0.1,2.1-0.2c0.9,1.1,2.6,2.2,5.6,2.2c0.1,0,0.3,0,0.4,0c1.4,0,2.5-1.2,2.4-2.6
		C91.8,95.5,90.7,94.4,89.3,94.5z M53.7,87c-12.6,0.3-27.1-4.5-30.1-19c-0.1-0.5-0.4-1-0.7-1.3c-0.1-0.2-0.2-0.5-0.4-0.7
		c-0.9-1-2.5-1.1-3.5-0.1c-4.6,4.3-8.8,5.5-10.8,4.8c-0.5-0.2-1.2-0.6-1.4-1.9c-0.5-2.8,5.5-5.1,8.4-5.7c1.3-0.3,2.2-1.5,1.9-2.8
		c-0.2-1.3-1.4-2.2-2.7-2.1c-3.9,0.4-7.6-2.3-8.9-5.2c-0.5-1.1-0.8-2.6,0.3-3.6c2.4-2.1,8.7,1.8,11.2,4c1,0.9,2.6,0.8,3.5-0.3
		c0.3-0.4,0.5-0.8,0.6-1.3c0.2-0.4,0.4-1,0.3-1.5c-1.8-14.2,1.4-27.5,8.8-35.8C35.6,8.2,43.1,5,52.3,5c0.1,0,0.3,0,0.4,0
		c17.8,0.2,28.8,19.4,31.7,25.3c9.2,18.5,5.8,31.4,1.2,39C79.4,79.7,66.9,86.6,53.7,87z"/>
</g>
</svg>
